Coordinates
version=1
nRows=4
nColumns=63
inDegrees=yes

Units are S.I. units (second, meters, Newtons, ...)
If the header above contains a line with 'inDegrees', this indicates whether rotational values are in degrees (yes) or radians (no).

endheader
time	pelvis_tilt	pelvis_list	pelvis_rotation	pelvis_tx	pelvis_ty	pelvis_tz	hip_flexion_r	hip_adduction_r	hip_rotation_r	knee_angle_r	knee_angle_r_beta	ankle_angle_r	subtalar_angle_r	mtp_angle_r	hip_flexion_l	hip_adduction_l	hip_rotation_l	knee_angle_l	knee_angle_l_beta	ankle_angle_l	subtalar_angle_l	mtp_angle_l	L5_S1_Flex_Ext	L5_S1_Lat_Bending	L5_S1_axial_rotation	L4_L5_Flex_Ext	L4_L5_Lat_Bending	L4_L5_axial_rotation	L3_L4_Flex_Ext	L3_L4_Lat_Bending	L3_L4_axial_rotation	L2_L3_Flex_Ext	L2_L3_Lat_Bending	L2_L3_axial_rotation	L1_L2_Flex_Ext	L1_L2_Lat_Bending	L1_L2_axial_rotation	L1_T12_Flex_Ext	L1_T12_Lat_Bending	L1_T12_axial_rotation	Abs_r3	Abs_r2	Abs_r1	Abs_t1	Abs_t2	neck_flexion	neck_bending	neck_rotation	arm_flex_r	arm_add_r	arm_rot_r	elbow_flex_r	pro_sup_r	wrist_flex_r	wrist_dev_r	arm_flex_l	arm_add_l	arm_rot_l	elbow_flex_l	pro_sup_l	wrist_flex_l	wrist_dev_l
      2.16326531	      6.85865660	     -1.79720129	     94.30319678	      0.42142246	      0.65855700	      0.79028386	     16.61650563	      4.13543097	      1.35545964	     19.83962672	      0.34626681	     37.67771104	    -15.08549422	      0.00000000	      9.18846657	     -1.16586853	      3.42800260	      6.53306043	      0.11402341	     34.85487665	      9.66542453	      0.00000000	      1.03278338	      0.39248001	     -0.17811145	      1.91798202	      0.52199841	     -0.18924341	      1.69675982	      0.95427589	     -0.18924341	      1.18036813	      0.95427589	     -0.15584751	      0.95904265	      0.80034523	     -0.14471555	      0.59013243	      0.60795153	     -0.13358358	      7.37706843	      4.43981234	     -0.99060243	      0.00000000	      0.00000000	     28.46285345	     -5.53123272	     26.51046143	     13.43943899	    -12.44001419	     84.94157786	     39.19614344	     30.82980457	      9.26987587	      3.89847518	      9.01737556	     -7.08055462	     67.69096273	     39.17266866	     76.56417657	     -0.22796207	     -8.74664484
      2.18367347	      6.93143710	     -1.79310276	     94.46676806	      0.42195456	      0.65920692	      0.78943995	     16.41901990	      4.25212358	      1.48530433	     19.50155171	      0.34036629	     37.52192686	    -15.40567630	      0.00000000	      9.17246161	     -1.23725293	      3.58851175	      6.44201609	      0.11243439	     34.78696210	      9.36702378	      0.00000000	      1.08744509	      0.38787221	     -0.13611578	      2.01949428	      0.51587004	     -0.14462302	      1.78656354	      0.94307249	     -0.14462302	      1.24284100	      0.94307249	     -0.11910131	      1.00980151	      0.79094901	     -0.11059407	      0.62136613	      0.60081405	     -0.10208684	      7.76751154	      4.38768800	     -0.75703515	      0.00000000	      0.00000000	     28.47443231	     -5.56496823	     23.68406526	     13.98345124	    -12.43227143	     87.38375184	     39.59010913	     29.62063164	      8.54083865	      3.18514924	      8.82950082	     -7.42405114	     66.97423270	     39.68215960	     77.87345504	      0.35130795	     -8.39418806
      2.20408163	      7.09078267	     -1.76953515	     94.59680882	      0.42243346	      0.65996586	      0.78860048	     16.19042769	      4.42153337	      1.41191690	     19.13220667	      0.33392000	     37.35327499	    -15.54405480	      0.00000000	      9.13047487	     -1.40587402	      3.67140376	      6.41373317	      0.11194076	     34.70215367	      9.19677854	      0.00000000	      1.12668733	      0.41056910	     -0.10484714	      2.09237103	      0.54605690	     -0.11140008	      1.85103461	      0.99825771	     -0.11140008	      1.28769094	      0.99825771	     -0.09174124	      1.04624185	      0.83723251	     -0.08518830	      0.64378914	      0.63597154	     -0.07863535	      8.04781490	      4.64443979	     -0.58312832	      0.00000000	      0.00000000	     28.48085991	     -4.66257359	     22.75433988	     14.10636577	    -12.67794309	     87.83319775	     40.01811298	     29.44322386	      8.41283224	      3.12169454	      8.71835945	     -7.67958818	     66.53400515	     40.21900989	     78.14555339	      0.53828983	     -8.47118673
      2.22448980	      7.22789784	     -1.62020692	     94.85757854	      0.42271837	      0.66079804	      0.78792738	     15.84483178	      4.57356459	      1.39288247	     18.78259071	      0.32781805	     37.06230876	    -16.09240914	      0.00000000	      8.91838269	     -1.48021432	      5.21489570	      6.33853568	      0.11062832	     34.37173031	      7.39396332	      0.00000000	      1.14757831	      0.42769712	     -0.16167434	      2.13116768	      0.56883717	     -0.17177899	      1.88535641	      1.03990278	     -0.17177899	      1.31156725	      1.03990278	     -0.14146505	      1.06564122	      0.87215997	     -0.13136041	      0.65572625	      0.66250284	     -0.12125576	      8.19703712	      4.83819539	     -0.89918420	      0.00000000	      0.00000000	     28.48384089	     -4.45604744	     20.39411875	     14.92637502	    -12.78302358	     90.14289094	     40.53908398	     29.01754368	      6.88820254	      1.85537768	      7.91620417	     -7.81325973	     63.57666746	     40.85256660	     80.65429571	      1.84618617	     -7.47017027
